ply
format ascii 1.0
element vertex 25
property float x
property float y
property float z
element face 16
property list uchar uint vertex_indices
element cornerrectangle 2
property list uchar uchar surfacename
property uint rightup
property uint leftup
property uint leftdown
property uint rightdown
end_header
-1.000000 -1.000000 0.000000
1.000000 -1.000000 0.000000
-1.000000 1.000000 0.000000
1.000000 1.000000 0.000000
-1.000000 0.500000 0.000000
-1.000000 0.000000 0.000000
-1.000000 -0.500000 0.000000
-0.500000 -1.000000 0.000000
0.000000 -1.000000 0.000000
0.500000 -1.000000 0.000000
1.000000 -0.500000 0.000000
1.000000 0.000000 0.000000
1.000000 0.500000 0.000000
0.500000 1.000000 0.000000
0.000000 1.000000 0.000000
-0.500000 1.000000 0.000000
-0.500000 -0.500000 0.000000
-0.500000 0.000000 0.000000
-0.500000 0.500000 0.000000
0.000000 -0.500000 0.000000
0.000000 0.000000 0.000000
0.000000 0.500000 0.000000
0.500000 -0.500000 0.000000
0.500000 0.000000 0.000000
0.500000 0.500000 0.000000
4 24 12 3 13
4 4 18 15 2
4 18 21 14 15
4 21 24 13 14
4 0 7 16 6
4 6 16 17 5
4 5 17 18 4
4 7 8 19 16
4 16 19 20 17
4 17 20 21 18
4 8 9 22 19
4 19 22 23 20
4 20 23 24 21
4 9 1 10 22
4 22 10 11 23
4 23 11 12 24
5 115 117 114 102 49 7 0 2 15
5 115 117 114 102 50 9 13 3 1
